<?xml version="1.0" standalone="no"?>
<!DOCTYPE svg PUBLIC "-//W3C//DTD SVG 1.1//EN" "http://www.w3.org/Graphics/SVG/1.1/DTD/svg11.dtd">
<svg version="1.0" xmlns="http://www.w3.org/2000/svg" preserveAspectRatio="xMidYMid meet" viewBox="32 26.08 101.5 114.92" width="101.5" height="114.91999816894531">
<metadata>
Created by potrace 1.16, written by Peter Selinger 2001-2019
</metadata>
<g transform="translate(0.000000,154.000000) scale(0.100000,-0.100000)" fill="#000000" stroke="none">
<path d="M573 1142 l-253 -136 0 -292 0 -291 256 -147 257 -146 251 144 251 143 0 298 0 297 -250 134 c-137 74 -252 134 -255 133 -3 0 -119 -62 -257 -137z m453 -43 c104 -56 193 -105 198 -109 7 -7 -302 -198 -348 -216 -11 -4 -372 199 -399 225 -7 7 333 198 354 200 3 1 91 -45 195 -100z m254 -404 l0 -225 -37 -24 c-21 -13 -103 -61 -183 -106 -80 -46 -148 -85 -152 -87 -5 -2 -8 98 -8 224 l0 228 183 107 c100 60 185 108 190 108 4 0 7 -101 7 -225z"/>
</g>
</svg>